<svg width="335" height="170" viewBox="0 0 335 170" fill="none" xmlns="http://www.w3.org/2000/svg">
    <rect width="335" height="170" rx="12" fill="#E6F9F2"/>
    <mask id="mask0_5_2742" style="mask-type:alpha" maskUnits="userSpaceOnUse" x="0" y="0" width="335" height="170">
        <rect width="335" height="170" rx="12" fill="white"/>
    </mask>
    <g mask="url(#mask0_5_2742)">
        <path d="M320.8 7.4C320.8 6.1 319.7 5 318.4 5C317.1 5 316 6.1 316 7.4C316 7.9 316.6 8.2 317.3 8.3V10.6H319.3V8.3C320.2 8.1 320.8 7.8 320.8 7.4Z" fill="#FFD15C"/>
        <path d="M272.6 27.1748C273.6 26.3748 273.8 24.8748 272.9 23.8748C272.1 22.8748 270.6 22.6748 269.6 23.5748C269.2 23.8748 269.4 24.4748 269.8 25.1748L268 26.5748L269.3 28.1748L271.1 26.6748C271.6 27.1748 272.2 27.4748 272.6 27.1748Z" fill="#FFD15C"/>
        <path fill-rule="evenodd" clip-rule="evenodd" d="M315.194 24.2C315.194 23 316.194 22 317.394 22C318.694 22 319.694 23 319.594 24.2C319.594 25.4 318.594 26.4 317.394 26.4C316.194 26.4 315.194 25.4 315.194 24.2ZM315.994 24.2C315.994 25 316.594 25.6 317.394 25.6C318.194 25.6 318.794 25 318.794 24.2C318.794 23.4 318.194 22.8 317.394 22.8C316.594 22.8 315.994 23.4 315.994 24.2Z" fill="#FF7058"/>
        <path fill-rule="evenodd" clip-rule="evenodd" d="M276 5.2C276 4 277 3 278.2 3C279.5 3 280.5 4 280.4 5.2C280.4 6.4 279.4 7.4 278.2 7.4C277 7.4 276 6.4 276 5.2ZM276.8 5.2C276.8 6 277.4 6.6 278.2 6.6C279 6.6 279.6 6 279.6 5.2C279.6 4.4 279 3.8 278.2 3.8C277.4 3.8 276.8 4.4 276.8 5.2Z" fill="#FF7058"/>
        <path fill-rule="evenodd" clip-rule="evenodd" d="M308 35.7135C308 34.5135 309 33.5135 310.2 33.5135C311.4 33.5135 312.4 34.5135 312.4 35.7135C312.4 36.9135 311.4 37.9135 310.2 37.9135C309 37.9135 308 36.9135 308 35.7135ZM308.8 35.6135C308.8 36.4135 309.4 37.0135 310.2 37.0135C311 37.0135 311.6 36.4135 311.6 35.6135C311.6 34.8135 311 34.2135 310.2 34.2135C309.4 34.2135 308.8 34.8135 308.8 35.6135Z" fill="#FF7058"/>
        <path d="M107.5 204C107.5 204 -62.5 177 167.5 162C397.5 147 326 222.5 300.5 110C275 -2.5 356.5 178.5 330 95C303.5 11.5 491 71 359.5 8C228 -55 327.5 112 192.5 61.5C57.5 11 76 -80 76 -80" stroke="#868686" stroke-linecap="round" stroke-dasharray="5"/>
        <path opacity="0.84" d="M25.9531 120V115.148L29.9531 108.727H28.3516L25.3125 113.734H25.1875L22.1484 108.727H20.5469L24.5469 115.148V120H25.9531ZM33.4984 120.148C35.8969 120.148 37.3813 118.492 37.3813 115.789C37.3813 113.078 35.8969 111.43 33.4984 111.43C31.1 111.43 29.6156 113.078 29.6156 115.789C29.6156 118.492 31.1 120.148 33.4984 120.148ZM33.4984 118.938C31.9047 118.938 31.0063 117.781 31.0063 115.789C31.0063 113.789 31.9047 112.641 33.4984 112.641C35.0922 112.641 35.9906 113.789 35.9906 115.789C35.9906 117.781 35.0922 118.938 33.4984 118.938ZM45.9031 111.578H44.5594V116.562C44.5594 118.039 43.7469 118.922 42.2625 118.922C40.9188 118.922 40.3563 118.219 40.3563 116.703V111.578H39.0125V117.031C39.0125 119.023 39.9969 120.148 41.8875 120.148C43.1766 120.148 44.075 119.617 44.4969 118.68H44.6219V120H45.9031V111.578ZM49.1516 112.938L50.4094 108.727H48.8859L48.175 112.938H49.1516ZM58.8531 111.578H57.4156L55.1109 118.516H54.9859L52.6812 111.578H51.2437L54.3609 120H55.7359L58.8531 111.578ZM63.2969 112.617C64.6328 112.617 65.5234 113.602 65.5547 115.094H60.9141C61.0156 113.602 61.9531 112.617 63.2969 112.617ZM65.5156 117.82C65.1641 118.562 64.4297 118.961 63.3438 118.961C61.9141 118.961 60.9844 117.906 60.9141 116.242V116.18H66.9688V115.664C66.9688 113.047 65.5859 111.43 63.3125 111.43C61 111.43 59.5156 113.148 59.5156 115.797C59.5156 118.461 60.9766 120.148 63.3125 120.148C65.1562 120.148 66.4531 119.266 66.8594 117.82H65.5156ZM73.3563 109.398V111.578H71.9969V112.703H73.3563V117.812C73.3563 119.422 74.0516 120.062 75.7859 120.062C76.0516 120.062 76.3094 120.031 76.575 119.984V118.852C76.325 118.875 76.1922 118.883 75.95 118.883C75.075 118.883 74.7 118.461 74.7 117.469V112.703H76.575V111.578H74.7V109.398H73.3563ZM81.5422 120.148C83.9406 120.148 85.425 118.492 85.425 115.789C85.425 113.078 83.9406 111.43 81.5422 111.43C79.1437 111.43 77.6594 113.078 77.6594 115.789C77.6594 118.492 79.1437 120.148 81.5422 120.148ZM81.5422 118.938C79.9484 118.938 79.05 117.781 79.05 115.789C79.05 113.789 79.9484 112.641 81.5422 112.641C83.1359 112.641 84.0344 113.789 84.0344 115.789C84.0344 117.781 83.1359 118.938 81.5422 118.938ZM94.7109 120.148C97.1094 120.148 98.5938 118.492 98.5938 115.789C98.5938 113.078 97.1094 111.43 94.7109 111.43C92.3125 111.43 90.8281 113.078 90.8281 115.789C90.8281 118.492 92.3125 120.148 94.7109 120.148ZM94.7109 118.938C93.1172 118.938 92.2188 117.781 92.2188 115.789C92.2188 113.789 93.1172 112.641 94.7109 112.641C96.3047 112.641 97.2031 113.789 97.2031 115.789C97.2031 117.781 96.3047 118.938 94.7109 118.938ZM100.303 120H101.647V114.781C101.647 113.594 102.577 112.734 103.858 112.734C104.123 112.734 104.608 112.781 104.717 112.812V111.469C104.545 111.445 104.264 111.43 104.045 111.43C102.928 111.43 101.959 112.008 101.709 112.828H101.584V111.578H100.303V120ZM108.88 120.148C110.044 120.148 111.044 119.594 111.575 118.656H111.7V120H112.981V108.234H111.637V112.906H111.52C111.044 111.984 110.052 111.43 108.88 111.43C106.739 111.43 105.341 113.148 105.341 115.789C105.341 118.438 106.723 120.148 108.88 120.148ZM109.192 112.641C110.716 112.641 111.669 113.859 111.669 115.789C111.669 117.734 110.723 118.938 109.192 118.938C107.653 118.938 106.731 117.758 106.731 115.789C106.731 113.828 107.661 112.641 109.192 112.641ZM118.55 112.617C119.886 112.617 120.777 113.602 120.808 115.094H116.167C116.269 113.602 117.206 112.617 118.55 112.617ZM120.769 117.82C120.417 118.562 119.683 118.961 118.597 118.961C117.167 118.961 116.238 117.906 116.167 116.242V116.18H122.222V115.664C122.222 113.047 120.839 111.43 118.566 111.43C116.253 111.43 114.769 113.148 114.769 115.797C114.769 118.461 116.23 120.148 118.566 120.148C120.409 120.148 121.706 119.266 122.113 117.82H120.769ZM123.931 120H125.275V114.781C125.275 113.594 126.205 112.734 127.486 112.734C127.752 112.734 128.236 112.781 128.345 112.812V111.469C128.173 111.445 127.892 111.43 127.673 111.43C126.556 111.43 125.588 112.008 125.338 112.828H125.213V111.578H123.931V120ZM136.334 118.969C135.358 118.969 134.631 118.469 134.631 117.609C134.631 116.766 135.194 116.32 136.475 116.234L138.741 116.086V116.859C138.741 118.062 137.717 118.969 136.334 118.969ZM136.084 120.148C137.209 120.148 138.131 119.656 138.678 118.758H138.803V120H140.084V114.234C140.084 112.484 138.936 111.43 136.881 111.43C135.084 111.43 133.756 112.32 133.577 113.672H134.936C135.123 113.008 135.827 112.625 136.834 112.625C138.092 112.625 138.741 113.195 138.741 114.234V115L136.311 115.148C134.35 115.266 133.241 116.133 133.241 117.641C133.241 119.18 134.452 120.148 136.084 120.148ZM142.731 109.398V111.578H141.372V112.703H142.731V117.812C142.731 119.422 143.427 120.062 145.161 120.062C145.427 120.062 145.684 120.031 145.95 119.984V118.852C145.7 118.875 145.567 118.883 145.325 118.883C144.45 118.883 144.075 118.461 144.075 117.469V112.703H145.95V111.578H144.075V109.398H142.731ZM151.775 120H153.119V108.234H151.775V120ZM158.688 112.617C160.023 112.617 160.914 113.602 160.945 115.094H156.305C156.406 113.602 157.344 112.617 158.688 112.617ZM160.906 117.82C160.555 118.562 159.82 118.961 158.734 118.961C157.305 118.961 156.375 117.906 156.305 116.242V116.18H162.359V115.664C162.359 113.047 160.977 111.43 158.703 111.43C156.391 111.43 154.906 113.148 154.906 115.797C154.906 118.461 156.367 120.148 158.703 120.148C160.547 120.148 161.844 119.266 162.25 117.82H160.906ZM166.663 118.969C165.686 118.969 164.959 118.469 164.959 117.609C164.959 116.766 165.522 116.32 166.803 116.234L169.069 116.086V116.859C169.069 118.062 168.045 118.969 166.663 118.969ZM166.413 120.148C167.538 120.148 168.459 119.656 169.006 118.758H169.131V120H170.413V114.234C170.413 112.484 169.264 111.43 167.209 111.43C165.413 111.43 164.084 112.32 163.905 113.672H165.264C165.452 113.008 166.155 112.625 167.163 112.625C168.42 112.625 169.069 113.195 169.069 114.234V115L166.639 115.148C164.678 115.266 163.569 116.133 163.569 117.641C163.569 119.18 164.78 120.148 166.413 120.148ZM172.302 113.883C172.302 115.102 173.02 115.781 174.598 116.164L176.044 116.516C176.942 116.734 177.38 117.125 177.38 117.703C177.38 118.477 176.567 119.016 175.434 119.016C174.356 119.016 173.684 118.562 173.458 117.852H172.075C172.223 119.25 173.512 120.148 175.387 120.148C177.302 120.148 178.762 119.109 178.762 117.602C178.762 116.391 177.997 115.703 176.411 115.32L175.114 115.008C174.122 114.766 173.653 114.406 173.653 113.828C173.653 113.078 174.434 112.57 175.434 112.57C176.45 112.57 177.106 113.016 177.286 113.688H178.614C178.434 112.305 177.208 111.43 175.442 111.43C173.653 111.43 172.302 112.484 172.302 113.883ZM180.956 109.398V111.578H179.597V112.703H180.956V117.812C180.956 119.422 181.652 120.062 183.386 120.062C183.652 120.062 183.909 120.031 184.175 119.984V118.852C183.925 118.875 183.792 118.883 183.55 118.883C182.675 118.883 182.3 118.461 182.3 117.469V112.703H184.175V111.578H182.3V109.398H180.956ZM194.375 121.07V120.016C196.578 119.836 197.859 118.664 197.859 116.812C197.859 115.25 196.977 114.297 195.047 113.781L194.375 113.617V109.797C195.523 109.938 196.297 110.672 196.328 111.648H197.656C197.602 109.953 196.312 108.75 194.375 108.586V107.5H193.328V108.594C191.336 108.789 190.102 109.961 190.102 111.664C190.102 113.102 191.023 114.133 192.703 114.578L193.328 114.75V118.812C192.047 118.656 191.25 117.961 191.164 116.914H189.828C189.836 118.641 191.211 119.867 193.328 120.023V121.07H194.375ZM196.508 116.922C196.508 118.07 195.734 118.766 194.375 118.836V114.961C195.844 115.273 196.508 115.883 196.508 116.922ZM191.445 111.586C191.445 110.609 192.234 109.859 193.328 109.797V113.391C192.094 113.133 191.445 112.508 191.445 111.586ZM202.584 120H203.991V108.727H202.592L199.592 110.883V112.367L202.459 110.289H202.584V120ZM210.747 120.266C213.278 120.266 214.731 118.125 214.731 114.383C214.731 110.648 213.255 108.461 210.747 108.461C208.223 108.461 206.747 110.641 206.747 114.359C206.747 118.109 208.208 120.266 210.747 120.266ZM210.747 119.039C209.083 119.039 208.161 117.375 208.161 114.359C208.161 111.383 209.098 109.695 210.747 109.695C212.395 109.695 213.317 111.367 213.317 114.359C213.317 117.383 212.411 119.039 210.747 119.039ZM221.322 120H222.666V112.703H224.595V111.578H222.666V110.68C222.666 109.758 223.072 109.289 224.041 109.289C224.283 109.289 224.509 109.297 224.673 109.328V108.234C224.392 108.18 224.095 108.156 223.767 108.156C222.166 108.156 221.322 108.961 221.322 110.641V111.578H219.923V112.703H221.322V120ZM229.258 120.148C231.656 120.148 233.141 118.492 233.141 115.789C233.141 113.078 231.656 111.43 229.258 111.43C226.859 111.43 225.375 113.078 225.375 115.789C225.375 118.492 226.859 120.148 229.258 120.148ZM229.258 118.938C227.664 118.938 226.766 117.781 226.766 115.789C226.766 113.789 227.664 112.641 229.258 112.641C230.852 112.641 231.75 113.789 231.75 115.789C231.75 117.781 230.852 118.938 229.258 118.938ZM234.85 120H236.194V114.781C236.194 113.594 237.123 112.734 238.405 112.734C238.67 112.734 239.155 112.781 239.264 112.812V111.469C239.092 111.445 238.811 111.43 238.592 111.43C237.475 111.43 236.506 112.008 236.256 112.828H236.131V111.578H234.85V120ZM28.0781 135.578H26.7344V140.562C26.7344 142.039 25.9219 142.922 24.4375 142.922C23.0938 142.922 22.5312 142.219 22.5312 140.703V135.578H21.1875V141.031C21.1875 143.023 22.1719 144.148 24.0625 144.148C25.3516 144.148 26.25 143.617 26.6719 142.68H26.7969V144H28.0781V135.578ZM30.0141 137.883C30.0141 139.102 30.7328 139.781 32.3109 140.164L33.7563 140.516C34.6547 140.734 35.0922 141.125 35.0922 141.703C35.0922 142.477 34.2797 143.016 33.1469 143.016C32.0688 143.016 31.3969 142.562 31.1703 141.852H29.7875C29.9359 143.25 31.225 144.148 33.1 144.148C35.0141 144.148 36.475 143.109 36.475 141.602C36.475 140.391 35.7094 139.703 34.1234 139.32L32.8266 139.008C31.8344 138.766 31.3656 138.406 31.3656 137.828C31.3656 137.078 32.1469 136.57 33.1469 136.57C34.1625 136.57 34.8188 137.016 34.9984 137.688H36.3266C36.1469 136.305 34.9203 135.43 33.1547 135.43C31.3656 135.43 30.0141 136.484 30.0141 137.883ZM38.2156 144H39.5594V135.578H38.2156V144ZM38.8875 133.867C39.4031 133.867 39.825 133.445 39.825 132.93C39.825 132.414 39.4031 131.992 38.8875 131.992C38.3719 131.992 37.95 132.414 37.95 132.93C37.95 133.445 38.3719 133.867 38.8875 133.867ZM41.7219 144H43.0656V139.016C43.0656 137.539 43.9328 136.641 45.2766 136.641C46.6203 136.641 47.2609 137.359 47.2609 138.875V144H48.6047V138.547C48.6047 136.547 47.55 135.43 45.6594 135.43C44.3703 135.43 43.55 135.977 43.1281 136.906H43.0031V135.578H41.7219V144ZM54.0719 142.688C52.5094 142.688 51.6344 141.5 51.6344 139.664C51.6344 137.828 52.5094 136.641 54.0719 136.641C55.6266 136.641 56.5719 137.828 56.5719 139.664C56.5719 141.5 55.6344 142.688 54.0719 142.688ZM54.1344 147.234C56.4312 147.234 57.8844 146.031 57.8844 144.148V135.578H56.6031V136.914H56.4781C55.9937 136.008 54.9547 135.43 53.775 135.43C51.6109 135.43 50.2437 137.141 50.2437 139.664C50.2437 142.188 51.5953 143.875 53.775 143.875C54.9312 143.875 55.8844 143.352 56.4156 142.422H56.5406V144.078C56.5406 145.32 55.6422 146.062 54.1344 146.062C52.9234 146.062 52.1734 145.617 52.025 144.93H50.6031C50.8062 146.32 52.1031 147.234 54.1344 147.234ZM64.6937 144H66.0375V136.703H67.9672V135.578H66.0375V134.68C66.0375 133.758 66.4437 133.289 67.4125 133.289C67.6547 133.289 67.8812 133.297 68.0453 133.328V132.234C67.7641 132.18 67.4672 132.156 67.1391 132.156C65.5375 132.156 64.6937 132.961 64.6937 134.641V135.578H63.2953V136.703H64.6937V144ZM69.5281 144H70.8719V138.781C70.8719 137.594 71.8016 136.734 73.0828 136.734C73.3484 136.734 73.8328 136.781 73.9422 136.812V135.469C73.7703 135.445 73.4891 135.43 73.2703 135.43C72.1531 135.43 71.1844 136.008 70.9344 136.828H70.8094V135.578H69.5281V144ZM78.3469 136.617C79.6828 136.617 80.5734 137.602 80.6047 139.094H75.9641C76.0656 137.602 77.0031 136.617 78.3469 136.617ZM80.5656 141.82C80.2141 142.562 79.4797 142.961 78.3937 142.961C76.9641 142.961 76.0344 141.906 75.9641 140.242V140.18H82.0187V139.664C82.0187 137.047 80.6359 135.43 78.3625 135.43C76.05 135.43 74.5656 137.148 74.5656 139.797C74.5656 142.461 76.0266 144.148 78.3625 144.148C80.2062 144.148 81.5031 143.266 81.9094 141.82H80.5656ZM87.0875 136.617C88.4234 136.617 89.3141 137.602 89.3453 139.094H84.7047C84.8063 137.602 85.7438 136.617 87.0875 136.617ZM89.3063 141.82C88.9547 142.562 88.2203 142.961 87.1344 142.961C85.7047 142.961 84.775 141.906 84.7047 140.242V140.18H90.7594V139.664C90.7594 137.047 89.3766 135.43 87.1031 135.43C84.7906 135.43 83.3063 137.148 83.3063 139.797C83.3063 142.461 84.7672 144.148 87.1031 144.148C88.9469 144.148 90.2438 143.266 90.65 141.82H89.3063ZM99.7016 144.148C100.866 144.148 101.866 143.594 102.397 142.656H102.522V144H103.803V132.234H102.459V136.906H102.342C101.866 135.984 100.873 135.43 99.7016 135.43C97.5609 135.43 96.1625 137.148 96.1625 139.789C96.1625 142.438 97.5453 144.148 99.7016 144.148ZM100.014 136.641C101.537 136.641 102.491 137.859 102.491 139.789C102.491 141.734 101.545 142.938 100.014 142.938C98.475 142.938 97.5531 141.758 97.5531 139.789C97.5531 137.828 98.4828 136.641 100.014 136.641ZM109.372 136.617C110.708 136.617 111.598 137.602 111.63 139.094H106.989C107.091 137.602 108.028 136.617 109.372 136.617ZM111.591 141.82C111.239 142.562 110.505 142.961 109.419 142.961C107.989 142.961 107.059 141.906 106.989 140.242V140.18H113.044V139.664C113.044 137.047 111.661 135.43 109.387 135.43C107.075 135.43 105.591 137.148 105.591 139.797C105.591 142.461 107.052 144.148 109.387 144.148C111.231 144.148 112.528 143.266 112.934 141.82H111.591ZM114.831 144H116.175V132.234H114.831V144ZM118.416 144H119.759V135.578H118.416V144ZM119.088 133.867C119.603 133.867 120.025 133.445 120.025 132.93C120.025 132.414 119.603 131.992 119.088 131.992C118.572 131.992 118.15 132.414 118.15 132.93C118.15 133.445 118.572 133.867 119.088 133.867ZM128.797 135.578H127.359L125.055 142.516H124.93L122.625 135.578H121.188L124.305 144H125.68L128.797 135.578ZM133.241 136.617C134.577 136.617 135.467 137.602 135.498 139.094H130.858C130.959 137.602 131.897 136.617 133.241 136.617ZM135.459 141.82C135.108 142.562 134.373 142.961 133.287 142.961C131.858 142.961 130.928 141.906 130.858 140.242V140.18H136.912V139.664C136.912 137.047 135.53 135.43 133.256 135.43C130.944 135.43 129.459 137.148 129.459 139.797C129.459 142.461 130.92 144.148 133.256 144.148C135.1 144.148 136.397 143.266 136.803 141.82H135.459ZM138.622 144H139.966V138.781C139.966 137.594 140.895 136.734 142.177 136.734C142.442 136.734 142.927 136.781 143.036 136.812V135.469C142.864 135.445 142.583 135.43 142.364 135.43C141.247 135.43 140.278 136.008 140.028 136.828H139.903V135.578H138.622V144ZM145.034 147.047C146.527 147.047 147.198 146.469 147.917 144.516L151.206 135.578H149.777L147.472 142.508H147.347L145.034 135.578H143.581L146.698 144.008L146.542 144.508C146.191 145.523 145.769 145.891 144.995 145.891C144.808 145.891 144.597 145.883 144.433 145.852V147C144.62 147.031 144.855 147.047 145.034 147.047ZM157.281 144H158.625V136.703H160.555V135.578H158.625V134.68C158.625 133.758 159.031 133.289 160 133.289C160.242 133.289 160.469 133.297 160.633 133.328V132.234C160.352 132.18 160.055 132.156 159.727 132.156C158.125 132.156 157.281 132.961 157.281 134.641V135.578H155.883V136.703H157.281V144ZM165.217 144.148C167.616 144.148 169.1 142.492 169.1 139.789C169.1 137.078 167.616 135.43 165.217 135.43C162.819 135.43 161.334 137.078 161.334 139.789C161.334 142.492 162.819 144.148 165.217 144.148ZM165.217 142.938C163.623 142.938 162.725 141.781 162.725 139.789C162.725 137.789 163.623 136.641 165.217 136.641C166.811 136.641 167.709 137.789 167.709 139.789C167.709 141.781 166.811 142.938 165.217 142.938ZM170.809 144H172.153V138.781C172.153 137.594 173.083 136.734 174.364 136.734C174.63 136.734 175.114 136.781 175.223 136.812V135.469C175.052 135.445 174.77 135.43 174.552 135.43C173.434 135.43 172.466 136.008 172.216 136.828H172.091V135.578H170.809V144ZM183.306 144H184.712V132.727H183.314L180.314 134.883V136.367L183.181 134.289H183.306V144ZM191.803 144H193.147V138.781C193.147 137.594 193.998 136.641 195.1 136.641C196.163 136.641 196.858 137.281 196.858 138.281V144H198.202V138.586C198.202 137.516 198.983 136.641 200.155 136.641C201.342 136.641 201.928 137.25 201.928 138.492V144H203.272V138.18C203.272 136.414 202.311 135.43 200.592 135.43C199.428 135.43 198.467 136.016 198.014 136.906H197.889C197.498 136.031 196.702 135.43 195.561 135.43C194.436 135.43 193.592 135.969 193.209 136.906H193.084V135.578H191.803V144ZM208.786 144.148C211.184 144.148 212.669 142.492 212.669 139.789C212.669 137.078 211.184 135.43 208.786 135.43C206.387 135.43 204.903 137.078 204.903 139.789C204.903 142.492 206.387 144.148 208.786 144.148ZM208.786 142.938C207.192 142.938 206.294 141.781 206.294 139.789C206.294 137.789 207.192 136.641 208.786 136.641C210.38 136.641 211.278 137.789 211.278 139.789C211.278 141.781 210.38 142.938 208.786 142.938ZM214.378 144H215.722V139.016C215.722 137.539 216.589 136.641 217.933 136.641C219.277 136.641 219.917 137.359 219.917 138.875V144H221.261V138.547C221.261 136.547 220.206 135.43 218.316 135.43C217.027 135.43 216.206 135.977 215.784 136.906H215.659V135.578H214.378V144ZM223.884 133.398V135.578H222.525V136.703H223.884V141.812C223.884 143.422 224.58 144.062 226.314 144.062C226.58 144.062 226.837 144.031 227.103 143.984V142.852C226.853 142.875 226.72 142.883 226.478 142.883C225.603 142.883 225.228 142.461 225.228 141.469V136.703H227.103V135.578H225.228V133.398H223.884ZM228.812 144H230.156V139.016C230.156 137.594 230.984 136.641 232.492 136.641C233.766 136.641 234.438 137.383 234.438 138.875V144H235.781V138.547C235.781 136.57 234.656 135.43 232.875 135.43C231.586 135.43 230.703 135.977 230.281 136.906H230.156V132.234H228.812V144ZM238.944 144.078C239.506 144.078 239.959 143.617 239.959 143.062C239.959 142.5 239.506 142.047 238.944 142.047C238.389 142.047 237.928 142.5 237.928 143.062C237.928 143.617 238.389 144.078 238.944 144.078Z" fill="#010F07"/>
        <path d="M25.2637 48V39.9473H33.5352V37.0762H25.2637V31.252H34.3145V28.2715H21.7363V48H25.2637ZM36.723 48H40.1273V39.5645C40.1273 37.5273 41.2894 36.2832 43.2171 36.2832C43.7913 36.2832 44.3109 36.3652 44.598 36.4746V33.3984C44.3519 33.3438 43.9691 33.2617 43.5316 33.2617C41.8226 33.2617 40.5511 34.2734 40.0589 36.0371H39.9905V33.5078H36.723V48ZM52.2291 35.8457C54.1842 35.8457 55.4967 37.2812 55.5651 39.332H48.7975C48.9342 37.3086 50.3151 35.8457 52.2291 35.8457ZM55.5788 43.666C55.2096 44.8691 54.0065 45.6621 52.4205 45.6621C50.192 45.6621 48.7702 44.1035 48.7702 41.7793V41.5742H58.901V40.4668C58.901 36.0645 56.3307 33.207 52.2155 33.207C48.0319 33.207 45.3795 36.2285 45.3795 40.8086C45.3795 45.4297 48.0045 48.2871 52.3522 48.2871C55.7838 48.2871 58.3268 46.4004 58.7643 43.666H55.5788ZM67.5302 35.8457C69.4853 35.8457 70.7978 37.2812 70.8662 39.332H64.0986C64.2353 37.3086 65.6162 35.8457 67.5302 35.8457ZM70.8798 43.666C70.5107 44.8691 69.3076 45.6621 67.7216 45.6621C65.4931 45.6621 64.0713 44.1035 64.0713 41.7793V41.5742H74.2021V40.4668C74.2021 36.0645 71.6318 33.207 67.5166 33.207C63.333 33.207 60.6806 36.2285 60.6806 40.8086C60.6806 45.4297 63.3056 48.2871 67.6533 48.2871C71.0849 48.2871 73.6279 46.4004 74.0654 43.666H70.8798ZM82.7105 28.2715V48H89.9156C95.8219 48 99.2945 44.3359 99.2945 38.0879C99.2945 31.8398 95.8082 28.2715 89.9156 28.2715H82.7105ZM86.2379 31.252H89.5465C93.484 31.252 95.6988 33.6855 95.6988 38.1016C95.6988 42.5996 93.5113 45.0195 89.5465 45.0195H86.2379V31.252ZM108.184 35.8457C110.139 35.8457 111.451 37.2812 111.519 39.332H104.752C104.889 37.3086 106.269 35.8457 108.184 35.8457ZM111.533 43.666C111.164 44.8691 109.961 45.6621 108.375 45.6621C106.146 45.6621 104.725 44.1035 104.725 41.7793V41.5742H114.855V40.4668C114.855 36.0645 112.285 33.207 108.17 33.207C103.986 33.207 101.334 36.2285 101.334 40.8086C101.334 45.4297 103.959 48.2871 108.307 48.2871C111.738 48.2871 114.281 46.4004 114.719 43.666H111.533ZM117.332 48H120.737V28.2715H117.332V48ZM123.897 48H127.301V33.5078H123.897V48ZM125.592 31.6074C126.659 31.6074 127.493 30.7871 127.493 29.7617C127.493 28.7227 126.659 27.9023 125.592 27.9023C124.54 27.9023 123.706 28.7227 123.706 29.7617C123.706 30.7871 124.54 31.6074 125.592 31.6074ZM143.095 33.5078H139.54L136.177 44.8418H136.108L132.745 33.5078H129.108L134.249 48H137.995L143.095 33.5078ZM150.685 35.8457C152.64 35.8457 153.952 37.2812 154.021 39.332H147.253C147.39 37.3086 148.771 35.8457 150.685 35.8457ZM154.034 43.666C153.665 44.8691 152.462 45.6621 150.876 45.6621C148.648 45.6621 147.226 44.1035 147.226 41.7793V41.5742H157.357V40.4668C157.357 36.0645 154.786 33.207 150.671 33.207C146.488 33.207 143.835 36.2285 143.835 40.8086C143.835 45.4297 146.46 48.2871 150.808 48.2871C154.239 48.2871 156.782 46.4004 157.22 43.666H154.034ZM159.738 48H163.142V39.5645C163.142 37.5273 164.304 36.2832 166.232 36.2832C166.806 36.2832 167.326 36.3652 167.613 36.4746V33.3984C167.367 33.3438 166.984 33.2617 166.546 33.2617C164.837 33.2617 163.566 34.2734 163.074 36.0371H163.005V33.5078H159.738V48ZM171.156 53.3867C174.465 53.3867 176.064 52.1699 177.308 48.5742L182.545 33.5078H178.963L175.545 45.1016H175.49L172.072 33.5078H168.353L173.508 48.0137C173.521 48.0547 173.316 48.7793 173.316 48.8203C172.933 50.1602 172.209 50.6934 170.801 50.6934C170.596 50.6934 169.994 50.6797 169.816 50.6387V53.332C169.994 53.373 170.965 53.3867 171.156 53.3867ZM191.081 48H194.485V36.1328H197.329V33.5488H194.43V32.3594C194.43 31.1836 195.018 30.5684 196.317 30.5684C196.713 30.5684 197.11 30.6094 197.397 30.6504V28.2715C196.973 28.1895 196.235 28.1211 195.565 28.1211C192.42 28.1211 191.081 29.4473 191.081 32.2637V33.5488H189.098V36.1328H191.081V48ZM205.643 48.2871C209.895 48.2871 212.657 45.457 212.657 40.7539C212.657 36.0645 209.868 33.207 205.643 33.207C201.419 33.207 198.63 36.0781 198.63 40.7539C198.63 45.457 201.391 48.2871 205.643 48.2871ZM205.643 45.5938C203.483 45.5938 202.089 43.8438 202.089 40.7539C202.089 37.6777 203.497 35.9141 205.643 35.9141C207.804 35.9141 209.198 37.6777 209.198 40.7539C209.198 43.8438 207.804 45.5938 205.643 45.5938ZM215.025 48H218.429V39.5645C218.429 37.5273 219.591 36.2832 221.519 36.2832C222.093 36.2832 222.612 36.3652 222.9 36.4746V33.3984C222.653 33.3438 222.271 33.2617 221.833 33.2617C220.124 33.2617 218.853 34.2734 218.36 36.0371H218.292V33.5078H215.025V48ZM26.4395 84H29.8984V64.2715H26.4121L21.2578 67.8945V71.2168L26.3574 67.6348H26.4395V84ZM61.1295 84V64.2715H57.0553L51.0123 79.1602H50.903L44.86 64.2715H40.7721V84H43.9577V70H44.0534L49.7545 83.8359H52.1608L57.862 70H57.9577V84H61.1295ZM70.8662 84.2871C75.1181 84.2871 77.8798 81.457 77.8798 76.7539C77.8798 72.0645 75.0908 69.207 70.8662 69.207C66.6416 69.207 63.8525 72.0781 63.8525 76.7539C63.8525 81.457 66.6142 84.2871 70.8662 84.2871ZM70.8662 81.5938C68.706 81.5938 67.3115 79.8438 67.3115 76.7539C67.3115 73.6777 68.7197 71.9141 70.8662 71.9141C73.0263 71.9141 74.4209 73.6777 74.4209 76.7539C74.4209 79.8438 73.0263 81.5938 70.8662 81.5938ZM80.2473 84H83.6516V75.6055C83.6516 73.5273 84.8958 72.1191 86.8509 72.1191C88.7923 72.1191 89.7493 73.2676 89.7493 75.3184V84H93.1536V74.6348C93.1536 71.2852 91.3352 69.2344 88.136 69.2344C85.9075 69.2344 84.3626 70.2734 83.5833 71.9961H83.5149V69.5078H80.2473V84ZM97.0113 66.1172V69.5078H94.9332V72.1328H97.0113V80.1445C97.0113 82.9609 98.2418 84.0684 101.373 84.0684C102.097 84.0684 102.767 84.0137 103.136 83.9316V81.334C102.918 81.375 102.48 81.4023 102.166 81.4023C100.963 81.4023 100.416 80.8555 100.416 79.666V72.1328H103.15V69.5078H100.416V66.1172H97.0113ZM105.75 84H109.154V75.6738C109.154 73.541 110.398 72.1191 112.449 72.1191C114.418 72.1191 115.43 73.3359 115.43 75.3594V84H118.834V74.6621C118.834 71.3398 116.961 69.2344 113.762 69.2344C111.56 69.2344 109.961 70.2324 109.182 71.9961H109.113V64.2715H105.75V84ZM122.774 64.2715L123.047 77.4922H126.014L126.287 64.2715H122.774ZM124.524 84.2734C125.645 84.2734 126.52 83.4121 126.52 82.332C126.52 81.252 125.645 80.4043 124.524 80.4043C123.416 80.4043 122.541 81.252 122.541 82.332C122.541 83.4121 123.416 84.2734 124.524 84.2734Z" fill="#010F07"/>
        <path d="M335.057 57.8493C346.479 62.6799 352.023 75.9207 347.34 87.5105C342.583 99.2857 329.212 104.885 317.529 100.164C305.94 95.4819 300.228 82.3891 304.726 70.7244L326.329 79.4527L335.057 57.8493Z" fill="#FF7058"/>
        <path d="M326.329 79.4527L333.484 61.7435C342.774 65.7124 347.175 76.4424 343.391 85.8069C339.533 95.3569 328.597 99.9986 319.048 96.1401C309.683 92.3566 305.114 81.7746 308.62 72.2977L326.329 79.4527Z" fill="#FFD15C"/>
        <path d="M318.034 88.5045C318.344 87.7364 317.973 86.8621 317.205 86.5518C316.437 86.2414 315.563 86.6125 315.252 87.3806C314.942 88.1488 315.313 89.023 316.081 89.3333C316.849 89.6437 317.724 89.2726 318.034 88.5045Z" fill="#F8B64C"/>
        <path d="M311.589 78.0274C310.662 77.6528 309.714 78.1324 309.376 78.9668C309.002 79.894 309.481 80.8427 310.316 81.1799C310.594 81.2922 310.929 80.9963 311.247 80.4774L312.823 81.1143L313.385 79.7235L311.809 79.0867C311.996 78.6231 311.96 78.1773 311.589 78.0274Z" fill="#F2F2F2"/>
        <path d="M335.739 91.667C335.407 90.8859 334.48 90.5113 333.699 90.8428C332.918 91.1744 332.543 92.1016 332.875 92.8826C332.985 93.143 333.393 93.2001 333.969 93.1093L334.577 94.5412L335.786 93.9512L335.179 92.5192C335.607 92.2607 335.849 91.9273 335.739 91.667Z" fill="#F2F2F2"/>
        <path fill-rule="evenodd" clip-rule="evenodd" d="M333.217 79.7551C332.383 79.4179 331.996 78.5067 332.333 77.6722C332.67 76.8377 333.582 76.4509 334.416 76.7881C335.25 77.1252 335.637 78.0365 335.3 78.8709C334.963 79.7054 334.052 80.0922 333.217 79.7551ZM333.442 79.1988C333.998 79.4235 334.519 79.2025 334.744 78.6462C334.931 78.1826 334.748 77.5692 334.191 77.3444C333.635 77.1196 333.114 77.3407 332.889 77.897C332.665 78.4533 332.886 78.974 333.442 79.1988Z" fill="#FF7058"/>
        <path fill-rule="evenodd" clip-rule="evenodd" d="M327.762 94.5919C327.02 94.2922 326.633 93.3809 326.933 92.6392C327.233 91.8974 328.107 91.6034 328.886 91.8103C329.628 92.11 330.014 93.0213 329.715 93.763C329.415 94.5048 328.504 94.8916 327.762 94.5919ZM327.987 94.0356C328.45 94.2229 328.971 94.0018 329.158 93.5382C329.346 93.0747 329.125 92.5539 328.661 92.3666C328.197 92.1793 327.677 92.4004 327.489 92.864C327.302 93.3275 327.523 93.8483 327.987 94.0356Z" fill="#FF7058"/>
        <path d="M319.009 59.1306L317.351 55.2253C322.521 53.1077 328.426 52.9053 334.027 55.0602L325.861 75.2728L319.009 59.1306Z" fill="#FF7058"/>
        <path d="M325.86 75.2729L319.009 59.1307C323.137 57.4551 327.928 57.3418 332.416 59.0472L325.86 75.2729Z" fill="#FFD15C"/>
        <path d="M330.463 59.876C330.169 59.0022 329.187 58.4974 328.313 58.7915C327.439 59.0856 326.935 60.068 327.229 60.9418C327.302 61.2949 327.803 61.3895 328.379 61.2986L328.912 62.916L330.269 62.4936L329.736 60.8762C330.201 60.525 330.574 60.1364 330.463 59.876Z" fill="#F2F2F2"/>
        <path fill-rule="evenodd" clip-rule="evenodd" d="M325.508 69.7379C324.674 69.4007 324.287 68.4895 324.624 67.655C324.961 66.8205 325.873 66.4337 326.707 66.7709C327.541 67.108 327.928 68.0193 327.591 68.8537C327.254 69.6882 326.343 70.075 325.508 69.7379ZM325.826 69.219C326.382 69.4438 326.903 69.2227 327.128 68.6664C327.315 68.2028 327.039 67.5519 326.575 67.3646C326.111 67.1773 325.498 67.3609 325.273 67.9172C325.086 68.3808 325.269 68.9942 325.826 69.219Z" fill="#FF7058"/>
        <path fill-rule="evenodd" clip-rule="evenodd" d="M323.302 63.4537C322.467 63.1165 322.08 62.2053 322.418 61.3708C322.755 60.5363 323.666 60.1495 324.5 60.4867C325.335 60.8238 325.722 61.7351 325.385 62.5696C325.047 63.404 324.136 63.7908 323.302 63.4537ZM323.619 62.9348C324.083 63.1221 324.696 62.9386 324.921 62.3823C325.146 61.8259 324.832 61.2678 324.368 61.0805C323.812 60.8557 323.291 61.0767 323.067 61.633C322.842 62.1893 323.063 62.7101 323.619 62.9348Z" fill="#FF7058"/>
        <path d="M334.81 86.2228C335.203 85.2499 334.733 84.1425 333.76 83.7494C332.788 83.3563 331.68 83.8264 331.287 84.7993C330.894 85.7723 331.364 86.8796 332.337 87.2727C333.31 87.6658 334.417 87.1958 334.81 86.2228Z" fill="#F8B64C"/>
        <path d="M339.175 70.0824C339.568 69.1095 339.098 68.0021 338.125 67.609C337.152 67.2159 336.044 67.686 335.651 68.6589C335.258 69.6318 335.728 70.7392 336.701 71.1323C337.674 71.5254 338.781 71.0553 339.175 70.0824Z" fill="#F8B64C"/>
        <path d="M316.796 60.0701L323.648 76.2123L303.435 68.0458C305.775 62.5202 310.023 58.4125 315.138 56.1647L316.796 60.0701Z" fill="#FF7058"/>
        <path d="M316.796 60.07L323.648 76.2122L307.422 69.6566C309.313 65.2436 312.685 61.9685 316.796 60.07Z" fill="#FFD15C"/>
        <path fill-rule="evenodd" clip-rule="evenodd" d="M314.716 65.4852C313.881 65.148 313.494 64.2368 313.831 63.4023C314.169 62.5678 315.08 62.181 315.914 62.5182C316.749 62.8553 317.136 63.7666 316.798 64.6011C316.461 65.4355 315.55 65.8223 314.716 65.4852ZM314.94 64.9289C315.497 65.1536 316.017 64.9326 316.242 64.3763C316.467 63.82 316.246 63.2993 315.69 63.0745C315.226 62.8872 314.613 63.0708 314.388 63.6271C314.163 64.1834 314.384 64.7041 314.94 64.9289Z" fill="#FF7058"/>
        <path d="M319.431 71.1653C319.824 70.1923 319.354 69.085 318.381 68.6919C317.408 68.2988 316.301 68.7688 315.908 69.7418C315.515 70.7147 315.985 71.8221 316.958 72.2152C317.931 72.6083 319.038 72.1382 319.431 71.1653Z" fill="#F8B64C"/>
        <path d="M311.426 66.4208C311.666 66.6259 311.739 66.979 311.534 67.2197C310.881 68.0345 311.026 69.2792 311.878 69.8392C312.119 70.0443 312.192 70.3974 311.987 70.6381C311.782 70.8788 311.428 70.9518 311.188 70.7467C309.892 69.6838 309.656 67.8631 310.627 66.5295C310.832 66.2888 311.185 66.2157 311.426 66.4208Z" fill="#F8B64C"/>
        <path d="M335.082 72.2037C334.969 72.4819 334.616 72.5549 334.338 72.4426C333.486 71.8825 332.297 72.1569 331.699 73.1019C331.587 73.3801 331.234 73.4531 330.955 73.3407C330.677 73.2284 330.604 72.8753 330.717 72.5971C331.594 71.226 333.397 70.768 334.806 71.5528C335.214 71.61 335.287 71.963 335.082 72.2037Z" fill="#F8B64C"/>
        <path d="M330.061 79.5585C330.351 78.8416 330.004 78.0256 329.287 77.736C328.57 77.4463 327.755 77.7927 327.465 78.5096C327.175 79.2265 327.522 80.0424 328.238 80.3321C328.955 80.6217 329.771 80.2754 330.061 79.5585Z" fill="#F8B64C"/>
        <path d="M324.233 94.7839C323.803 95.581 322.837 95.8376 322.077 95.315C321.28 94.8851 321.024 93.9186 321.546 93.1591C321.658 92.8809 322.16 92.9755 322.661 93.0701L323.408 91.7542L324.538 92.4267L323.754 93.8352C324.18 94.1153 324.438 94.5433 324.233 94.7839Z" fill="#F2F2F2"/>
        <path d="M321.677 87.4958C321.565 87.7739 321.768 88.0718 322.084 88.0914C322.993 88.2431 323.565 89.2293 323.414 90.1387C323.301 90.4169 323.504 90.7147 323.82 90.7343C324.098 90.8467 324.396 90.6435 324.416 90.3279C324.792 88.8622 323.869 87.4105 322.403 87.0341C321.995 86.9769 321.697 87.1802 321.677 87.4958Z" fill="#F8B64C"/>
        <path d="M318.908 77.5328C319.018 77.7932 318.868 78.164 318.515 78.2371C317.511 78.5864 316.969 79.6616 317.318 80.6656C317.429 80.9259 317.279 81.2968 316.926 81.3699C316.666 81.4804 316.295 81.3305 316.222 80.9775C315.689 79.3601 316.549 77.766 318.073 77.1957C318.519 77.1601 318.797 77.2725 318.908 77.5328Z" fill="#F8B64C"/>
        <path d="M325.913 81.5496C326.024 81.81 325.874 82.1808 325.521 82.2539C324.517 82.6032 323.974 83.6784 324.324 84.6824C324.434 84.9427 324.284 85.3136 323.931 85.3866C323.671 85.4972 323.3 85.3473 323.227 84.9942C322.694 83.3768 323.554 81.7828 325.079 81.2125C325.562 81.0841 325.803 81.2892 325.913 81.5496Z" fill="#F8B64C"/>
        <path d="M270.8 107.98H266.8C266.4 107.98 266 107.58 266 107.18C266 106.78 266.3 106.38 266.8 106.38H270.8C271.2 106.38 271.6 106.78 271.6 107.18C271.5 107.68 271.2 107.98 270.8 107.98Z" fill="#CD807D"/>
        <path d="M278.5 96.0805C278.2 96.0805 278 95.8805 277.8 95.6805L276 92.0805C275.8 91.6805 276 91.2805 276.3 91.0805C276.7 90.8805 277.1 91.0805 277.3 91.3805L279.1 94.9805C279.4 95.2805 279.3 96.0805 278.5 96.0805Z" fill="#CD807D"/>
        <path d="M272.8 122.081L270.8 118.581C270.6 118.181 270.7 117.781 271.1 117.581C271.5 117.381 271.9 117.481 272.1 117.881L274.1 121.381C274.3 121.781 274.2 122.181 273.8 122.381C273.5 122.581 273 122.281 272.8 122.081Z" fill="#84DBFF"/>
        <path d="M267.4 118.181C268.118 118.181 268.7 117.598 268.7 116.881C268.7 116.163 268.118 115.581 267.4 115.581C266.682 115.581 266.1 116.163 266.1 116.881C266.1 117.598 266.682 118.181 267.4 118.181Z" fill="#FFD15C"/>
        <path d="M269.4 99.2805C270.118 99.2805 270.7 98.6985 270.7 97.9805C270.7 97.2625 270.118 96.6805 269.4 96.6805C268.682 96.6805 268.1 97.2625 268.1 97.9805C268.1 98.6985 268.682 99.2805 269.4 99.2805Z" fill="#84DBFF"/>
        <path fill-rule="evenodd" clip-rule="evenodd" d="M282.154 154.703C281.185 154.307 280.216 153.911 279.261 153.337L278.92 153.132C269.914 147.721 266.973 135.925 272.384 126.92C277.836 117.846 289.523 114.932 298.596 120.384L298.937 120.589C299.893 121.163 300.738 121.764 301.502 122.502C308.214 128.485 309.928 138.614 305.132 146.596C300.336 154.578 290.587 157.821 282.154 154.703ZM280.646 143.305C281.328 144.179 282.16 144.957 283.115 145.531L283.388 145.695C288.3 148.647 294.744 147.04 297.695 142.128C300.647 137.216 299.108 130.813 294.128 127.821L293.855 127.657C292.832 127.042 291.822 126.714 290.73 126.522C286.581 125.7 282.157 127.499 279.821 131.388C277.484 135.277 277.973 140.027 280.646 143.305Z" fill="#F1543F"/>
        <path d="M290.73 126.522C291.905 124.721 293.653 123.357 295.838 122.812C297.148 122.486 298.282 121.681 298.937 120.589C299.893 121.163 300.697 121.833 301.502 122.502C300.341 124.126 298.675 125.353 296.6 125.87C295.508 126.143 294.497 126.743 293.828 127.548C292.832 127.042 291.822 126.714 290.73 126.522Z" fill="white"/>
        <path d="M279.261 153.337C279.849 152.204 280.095 150.866 279.768 149.556C279.183 147.44 279.566 145.256 280.646 143.305C281.328 144.179 282.092 144.916 283.115 145.531C282.678 146.568 282.595 147.633 282.936 148.766C283.453 150.841 283.151 152.889 282.263 154.676C281.185 154.307 280.216 153.911 279.261 153.337Z" fill="white"/>
        <path d="M279.768 149.556C279.251 147.481 279.566 145.256 280.646 143.305C277.973 140.027 277.525 135.208 279.821 131.388C282.157 127.499 286.581 125.7 290.73 126.522C291.905 124.721 293.653 123.357 295.838 122.812C297.148 122.486 298.213 121.64 298.938 120.589C298.801 120.507 298.733 120.466 298.596 120.384C289.523 114.932 277.837 117.846 272.384 126.92C266.932 135.993 269.846 147.68 278.92 153.132C279.056 153.214 279.124 153.255 279.261 153.337C279.849 152.204 280.095 150.867 279.768 149.556Z" fill="#FFD15C"/>
        <path d="M284.368 149.627C284.409 149.559 284.45 149.491 284.559 149.463C284.778 149.409 284.914 149.491 284.901 149.668L285.336 151.416C285.391 151.634 285.309 151.771 285.131 151.757C284.913 151.811 284.776 151.729 284.79 151.552L284.355 149.805C284.355 149.805 284.327 149.695 284.368 149.627Z" fill="#84DBFF"/>
        <path d="M296.502 150.604C296.612 150.577 296.68 150.618 296.748 150.659C296.884 150.741 296.939 150.959 296.789 151.055L295.75 152.473C295.668 152.61 295.45 152.664 295.355 152.514C295.218 152.432 295.164 152.214 295.314 152.118L296.352 150.699C296.284 150.658 296.393 150.631 296.502 150.604Z" fill="white"/>
        <path d="M291.396 153.385C291.423 153.494 291.382 153.563 291.341 153.631C291.259 153.767 291.04 153.822 290.945 153.672L289.526 152.633C289.39 152.551 289.335 152.333 289.485 152.237C289.567 152.101 289.786 152.047 289.881 152.197L291.3 153.235C291.341 153.167 291.368 153.276 291.396 153.385Z" fill="#FFD15C"/>
        <path d="M300.303 141.652C300.262 141.72 300.221 141.788 300.248 141.898C300.302 142.116 300.439 142.198 300.589 142.103L302.337 141.667C302.555 141.612 302.637 141.476 302.541 141.326C302.446 141.176 302.351 141.025 302.2 141.121L300.494 141.488C300.385 141.516 300.344 141.584 300.303 141.652Z" fill="#84DBFF"/>
        <path d="M299.617 146.811C299.658 146.743 299.699 146.675 299.808 146.648C300.027 146.593 300.163 146.675 300.149 146.852L300.585 148.6C300.639 148.818 300.557 148.955 300.38 148.941C300.162 148.996 300.025 148.914 300.039 148.736L299.603 146.989C299.603 146.989 299.576 146.879 299.617 146.811Z" fill="#FFD15C"/>
        <path d="M305.833 138.011C305.943 137.984 306.011 138.025 306.079 138.066C306.215 138.148 306.27 138.366 306.12 138.462L305.081 139.88C304.999 140.017 304.781 140.071 304.686 139.921C304.549 139.839 304.495 139.621 304.645 139.525L305.683 138.106C305.724 138.038 305.833 138.011 305.833 138.011Z" fill="#FFD15C"/>
        <path d="M304.854 133.151C304.881 133.26 304.84 133.328 304.799 133.397C304.717 133.533 304.498 133.588 304.403 133.437L302.943 132.467C302.807 132.385 302.752 132.167 302.902 132.071C302.984 131.935 303.203 131.88 303.298 132.031L304.717 133.069C304.826 133.042 304.854 133.151 304.854 133.151Z" fill="white"/>
        <path d="M300.707 128.152C300.666 128.221 300.625 128.289 300.652 128.398C300.707 128.617 300.843 128.699 300.993 128.603L302.741 128.167C302.959 128.113 303.041 127.977 302.946 127.826C302.891 127.608 302.755 127.526 302.605 127.621L300.857 128.057C300.857 128.057 300.748 128.084 300.707 128.152Z" fill="#84DBFF"/>
        <path d="M299.112 125.244L299.794 125.654L301.147 123.403L300.465 122.993C299.373 122.337 298.514 121.449 297.695 120.493C297.463 120.261 297.232 120.029 296.849 119.892C295.949 119.536 294.966 119.782 294.337 120.518C293.545 121.528 293.858 123.016 294.95 123.672C295.223 123.836 295.537 123.931 295.782 123.986C296.915 124.11 298.089 124.629 299.112 125.244Z" fill="#F1543F"/>
        <path d="M297.076 128.478L297.827 128.929L298.81 127.291L298.06 126.84C297.378 126.43 296.818 125.816 296.259 125.201C296.095 125.01 295.864 124.778 295.618 124.723C295.031 124.463 294.267 124.654 293.829 125.227C293.269 126.005 293.473 127.056 294.224 127.507C294.428 127.63 294.606 127.644 294.852 127.698C295.63 127.794 296.394 128.068 297.076 128.478Z" fill="#F1543F"/>
        <path d="M282.455 154.048L282.932 154.335L283.588 153.244L283.11 152.957C282.633 152.67 282.237 152.247 281.842 151.823C281.746 151.673 281.542 151.55 281.405 151.468C280.955 151.29 280.477 151.467 280.163 151.836C279.767 152.341 279.889 153.064 280.435 153.392C280.571 153.474 280.708 153.556 280.817 153.529C281.417 153.611 281.977 153.762 282.455 154.048Z" fill="#F1543F"/>
        <path d="M282.688 151.496L283.37 151.906L284.313 150.337L283.631 149.927C282.949 149.517 282.39 148.902 281.898 148.329C281.735 148.138 281.503 147.905 281.257 147.851C280.67 147.591 279.906 147.782 279.51 148.286C278.95 149.064 279.195 150.047 279.945 150.498C280.15 150.621 280.327 150.635 280.505 150.648C281.242 150.813 282.006 151.086 282.688 151.496Z" fill="#F1543F"/>
    </g>
</svg>
