<svg width="14" height="14" viewBox="0 0 14 14" fill="none" xmlns="http://www.w3.org/2000/svg">
    <path fill-rule="evenodd" clip-rule="evenodd" d="M0.333374 7.00004C0.333374 10.6819 3.31814 13.6667 7.00004 13.6667C10.6819 13.6667 13.6667 10.6819 13.6667 7.00004C13.6667 3.31814 10.6819 0.333374 7.00004 0.333374C3.31814 0.333374 0.333374 3.31814 0.333374 7.00004ZM7.03523 2.92597H6.97265C6.77912 2.92597 6.61821 3.07497 6.60337 3.26794L6.28278 7.4356C6.26915 7.61272 6.38322 7.77458 6.55461 7.82132L9.97606 8.75445C10.0003 8.76106 10.0253 8.76441 10.0505 8.76441C10.2067 8.76441 10.3334 8.63776 10.3334 8.48153V8.32609C10.3334 8.19318 10.2622 8.07046 10.1468 8.00452L7.74078 6.62967L7.40377 3.25949C7.38483 3.07015 7.22551 2.92597 7.03523 2.92597Z" fill="#010F07"/>
</svg>
